<?xml version="1.0" encoding="UTF-8"?><svg xmlns="http://www.w3.org/2000/svg" viewBox="0 0 1000 1000" x="0px" y="0px" width="1000px" height="1000px" xmlns:xlink="http://www.w3.org/1999/xlink" version="1.1"><g style="isolation:isolate"><g id="Layer_1" data-name="Layer 1"><g opacity="0.4" style="mix-blend-mode:soft-light"><path d="M272.243,347.079H201.868L166.682,286.09,201.868,225.1h70.375L307.43,286.09Zm-66.91-6h63.445L300.5,286.09,268.778,231.1H205.333L173.609,286.09Z" fill="#91ce74"/><polygon points="388.221 292.011 317.846 292.011 282.659 353 317.846 413.989 388.221 413.989 423.407 353 388.221 292.011" fill="#91ce74"/><path d="M388.221,547.81H317.846l-35.187-60.99,35.187-60.988h70.375l35.186,60.988Zm-66.91-6h63.445l31.723-54.99-31.723-54.988H321.311L289.587,486.82Z" fill="#91ce74"/><path d="M504.2,347.079H433.823L398.637,286.09,433.823,225.1H504.2l35.188,60.989Zm-66.91-6h63.445l31.725-54.989L500.733,231.1H437.288L405.564,286.09Z" fill="#91ce74"/><polygon points="504.198 358.921 433.823 358.921 398.637 419.91 433.823 480.899 504.198 480.899 539.386 419.91 504.198 358.921" fill="#91ce74"/><polygon points="620.177 158.191 549.802 158.191 514.615 219.18 549.802 280.168 620.177 280.168 655.363 219.18 620.177 158.191" fill="#91ce74"/><path d="M620.177,413.989H549.8L514.615,353,549.8,292.011h70.375L655.363,353Zm-66.91-6h63.445L648.436,353l-31.724-54.989H553.267L521.543,353Z" fill="#91ce74"/><path d="M620.177,547.81H549.8l-35.187-60.99L549.8,425.832h70.375l35.186,60.988Zm-66.91-6h63.445l31.724-54.99-31.724-54.988H553.267L521.543,486.82Z" fill="#91ce74"/><polygon points="736.154 358.921 665.779 358.921 630.593 419.91 665.779 480.899 736.154 480.899 771.341 419.91 736.154 358.921" fill="#91ce74"/><polygon points="852.132 158.191 781.757 158.191 746.57 219.18 781.757 280.168 852.132 280.168 887.318 219.18 852.132 158.191" fill="#91ce74"/><path d="M852.132,413.989H781.757L746.57,353l35.187-60.989h70.375L887.318,353Zm-66.91-6h63.445L880.391,353l-31.724-54.989H785.222L753.5,353Z" fill="#91ce74"/></g><path d="M831,598h38a0,0,0,0,1,0,0V747a19,19,0,0,1-19,19h0a19,19,0,0,1-19-19V598A0,0,0,0,1,831,598Z" fill="#fff"/><rect x="820" y="582" width="60" height="16" rx="8" fill="#d8d8d8"/><path d="M850,768a21.024,21.024,0,0,1-21-21V598a2,2,0,0,1,2-2h38a2,2,0,0,1,2,2V747A21.024,21.024,0,0,1,850,768ZM833,600V747a17,17,0,0,0,34,0V600Z" fill="#30292c"/><path d="M872,600H828a10,10,0,0,1,0-20h44a10,10,0,0,1,0,20Zm-44-16a6,6,0,0,0,0,12h44a6,6,0,0,0,0-12Z" fill="#30292c"/><path d="M840,693v54a10,10,0,0,0,20,0V693Z" fill="#ff415b"/><path d="M850,759a12.013,12.013,0,0,1-12-12V693a2,2,0,0,1,2-2h20a2,2,0,0,1,2,2v54A12.013,12.013,0,0,1,850,759Zm-8-64v52a8,8,0,0,0,16,0V695Z" fill="#30292c"/><circle cx="844.951" cy="559.76" r="3.192" fill="#ec1ce4"/><circle cx="832.497" cy="524.333" r="7.219" fill="#ff415b"/><circle cx="866.373" cy="551.933" r="6.187" fill="#ff415b"/><path d="M844.951,564.952a5.193,5.193,0,1,1,5.193-5.192A5.2,5.2,0,0,1,844.951,564.952Zm0-6.385a1.193,1.193,0,1,0,1.193,1.193A1.195,1.195,0,0,0,844.951,558.567Z" fill="#133b4f"/><path d="M852.034,542.552a4.063,4.063,0,1,1,4.063-4.063A4.067,4.067,0,0,1,852.034,542.552Zm0-4.125v.125l.063-.063A.063.063,0,0,0,852.034,538.427Z" fill="#133b4f"/><path d="M832.5,533.552a9.219,9.219,0,1,1,9.219-9.219A9.23,9.23,0,0,1,832.5,533.552Zm0-14.437a5.219,5.219,0,1,0,5.219,5.218A5.224,5.224,0,0,0,832.5,519.115Z" fill="#133b4f"/><path d="M866.372,560.12a8.188,8.188,0,1,1,8.188-8.187A8.2,8.2,0,0,1,866.372,560.12Zm0-12.375a4.188,4.188,0,1,0,4.188,4.188A4.191,4.191,0,0,0,866.372,547.745Z" fill="#133b4f"/><circle cx="846.508" cy="653.417" r="7.25" fill="#ff415b"/><path d="M846.509,662.667a9.25,9.25,0,1,1,9.25-9.25A9.26,9.26,0,0,1,846.509,662.667Zm0-14.5a5.25,5.25,0,1,0,5.25,5.25A5.256,5.256,0,0,0,846.509,648.167Z" fill="#30292c"/><circle cx="852.75" cy="678.083" r="3.083" fill="#ff415b"/><path d="M852.75,683.167a5.084,5.084,0,1,1,5.083-5.084A5.089,5.089,0,0,1,852.75,683.167Zm0-6.167a1.084,1.084,0,1,0,1.083,1.083A1.083,1.083,0,0,0,852.75,677Z" fill="#30292c"/><circle cx="856.842" cy="612.034" r="4.286" fill="#ff415b"/><path d="M856.842,618.32a6.286,6.286,0,1,1,6.286-6.286A6.293,6.293,0,0,1,856.842,618.32Zm0-8.572a2.286,2.286,0,1,0,2.286,2.286A2.288,2.288,0,0,0,856.842,609.748Z" fill="#30292c"/><circle cx="841.758" cy="605.281" r="1.619" fill="#67cc70"/><path d="M841.759,608.9a3.62,3.62,0,1,1,3.619-3.619A3.624,3.624,0,0,1,841.759,608.9Zm0-4a.381.381,0,1,0,.38.381A.382.382,0,0,0,841.759,604.9Z" fill="#30292c"/><circle cx="851.235" cy="708.568" r="1.568" fill="#30292c"/><circle cx="842.625" cy="725.375" r="2.625" fill="#30292c"/><circle cx="854.307" cy="738.372" r="3.76" fill="#30292c"/><circle cx="848.735" cy="703.943" r="0.568" fill="#30292c"/><path d="M763.126,598h38a0,0,0,0,1,0,0V747a19,19,0,0,1-19,19h0a19,19,0,0,1-19-19V598A0,0,0,0,1,763.126,598Z" fill="#fff"/><path d="M782.126,768a21.024,21.024,0,0,1-21-21V598a2,2,0,0,1,2-2h38a2,2,0,0,1,2,2V747A21.024,21.024,0,0,1,782.126,768Zm-17-168V747a17,17,0,0,0,34,0V600Z" fill="#30292c"/><rect x="766.376" y="562.333" width="31.5" height="35.667" fill="#ce7867"/><path d="M797.876,600h-31.5a2,2,0,0,1-2-2V562.333a2,2,0,0,1,2-2h31.5a2,2,0,0,1,2,2V598A2,2,0,0,1,797.876,600Zm-29.5-4h27.5V564.333h-27.5Z" fill="#30292c"/><rect x="752.126" y="582" width="60" height="16" rx="8" fill="#d8d8d8"/><path d="M804.126,600h-44a10,10,0,0,1,0-20h44a10,10,0,0,1,0,20Zm-44-16a6,6,0,0,0,0,12h44a6,6,0,0,0,0-12Z" fill="#30292c"/><path d="M772.126,640V747a10,10,0,0,0,20,0V640Z" fill="#5cecff"/><path d="M782.126,759a12.013,12.013,0,0,1-12-12V640a2,2,0,0,1,2-2h20a2,2,0,0,1,2,2V747A12.013,12.013,0,0,1,782.126,759Zm-8-117V747a8,8,0,0,0,16,0V642Z" fill="#30292c"/><circle cx="775.75" cy="670" r="3" fill="#30292c"/><circle cx="775.75" cy="616.75" r="5" fill="#5cecff"/><path d="M775.75,623.75a7,7,0,1,1,7-7A7.009,7.009,0,0,1,775.75,623.75Zm0-10a3,3,0,1,0,3,3A3,3,0,0,0,775.75,613.75Z" fill="#30292c"/><circle cx="788.417" cy="686" r="2" fill="#30292c"/><circle cx="780.545" cy="738.372" r="1.795" fill="#30292c"/><circle cx="781.545" cy="728.205" r="2.872" fill="#30292c"/><path d="M367.581,683h0a3.08,3.08,0,0,1-3.081-3.081V669h-24v10.919A3.08,3.08,0,0,1,337.419,683h-1A12.419,12.419,0,0,0,324,695.419v63.3A10.779,10.779,0,0,0,334.779,769.5H369.22A10.78,10.78,0,0,0,380,758.72v-63.3A12.419,12.419,0,0,0,367.581,683Z" fill="#fff"/><path d="M369.221,771.5H334.779A12.793,12.793,0,0,1,322,758.721v-63.3A14.437,14.437,0,0,1,336.42,681h1a1.081,1.081,0,0,0,1.08-1.08V669a2,2,0,0,1,2-2h24a2,2,0,0,1,2,2v10.92a1.081,1.081,0,0,0,1.08,1.08A14.437,14.437,0,0,1,382,695.42v63.3A12.793,12.793,0,0,1,369.221,771.5ZM336.42,685A10.433,10.433,0,0,0,326,695.42v63.3a8.789,8.789,0,0,0,8.779,8.779h34.442A8.789,8.789,0,0,0,378,758.721v-63.3A10.433,10.433,0,0,0,367.58,685a5.086,5.086,0,0,1-5.08-5.08V671h-20v8.92a5.086,5.086,0,0,1-5.08,5.08Z" fill="#30292c"/><path d="M332,669v-9.82a4.179,4.179,0,0,1,4.18-4.18h33.64a4.179,4.179,0,0,1,4.18,4.18V669" fill="#ccc"/><path d="M374,671H332a2,2,0,0,1-2-2v-9.82a6.187,6.187,0,0,1,6.18-6.18h33.64a6.187,6.187,0,0,1,6.18,6.18V669A2,2,0,0,1,374,671Zm-40-4h38v-7.82a2.183,2.183,0,0,0-2.18-2.18H336.18a2.183,2.183,0,0,0-2.18,2.18Z" fill="#30292c"/><path d="M371.95,700a4.482,4.482,0,0,0-6.962-3.234A7,7,0,0,0,351,697v1.5a5.5,5.5,0,0,0-11,0c0,.521-1,1.171-1,1a3.5,3.5,0,0,0-7,0,3.588,3.588,0,0,0,.05.5H332v58.721a2.779,2.779,0,0,0,2.779,2.779h34.442A2.779,2.779,0,0,0,372,758.721V700Z" fill="#5cecff"/><circle cx="341.712" cy="712.091" r="2.909" fill="#30292c"/><circle cx="352.901" cy="726.281" r="1.099" fill="#30292c"/><circle cx="351.901" cy="682.281" r="1.099" fill="#30292c"/><circle cx="345.401" cy="685.781" r="0.599" fill="#30292c"/><circle cx="362.401" cy="747.781" r="1.599" fill="#30292c"/><circle cx="359.901" cy="711.281" r="1.099" fill="#30292c"/><path d="M369.221,763.5H334.779A4.785,4.785,0,0,1,330,758.721V700a1.91,1.91,0,0,1,.012-.215C330,699.69,330,699.6,330,699.5a5.5,5.5,0,0,1,8.811-4.39,7.493,7.493,0,0,1,11.332-2.5,9,9,0,0,1,16.369,1.461,6.478,6.478,0,0,1,7.345,5.183A1.985,1.985,0,0,1,374,700v58.721A4.785,4.785,0,0,1,369.221,763.5ZM334,700.4v58.321a.781.781,0,0,0,.779.779h34.442a.781.781,0,0,0,.779-.779V700.445a1.821,1.821,0,0,1-.038-.223,2.481,2.481,0,0,0-3.857-1.8,2,2,0,0,1-3.116-1.593A5,5,0,0,0,353,697v1.647a2,2,0,0,1-4,0V698.5a3.5,3.5,0,0,0-7,0,3.344,3.344,0,0,1-2.966,3.028A2.054,2.054,0,0,1,337,699.5a1.5,1.5,0,0,0-3,0c0,.051.015.11.023.17A2.034,2.034,0,0,1,334,700.4Z" fill="#30292c"/><path d="M660.25,728h-227a14,14,0,0,0-14,14v14a14,14,0,0,0,14,14h10.3a18.381,18.381,0,0,1,17.573-13H632.374a18.381,18.381,0,0,1,17.573,13h10.3a14,14,0,0,0,14-14V742A14,14,0,0,0,660.25,728Z" fill="#ccc"/><path d="M660.25,772h-10.3a2,2,0,0,1-1.913-1.416A16.282,16.282,0,0,0,632.374,759H461.126a16.282,16.282,0,0,0-15.659,11.584A2,2,0,0,1,443.554,772h-10.3a16.019,16.019,0,0,1-16-16V742a16.019,16.019,0,0,1,16-16h227a16.019,16.019,0,0,1,16,16v14A16.019,16.019,0,0,1,660.25,772Zm-8.88-4h8.88a12.013,12.013,0,0,0,12-12V742a12.013,12.013,0,0,0-12-12h-227a12.013,12.013,0,0,0-12,12v14a12.013,12.013,0,0,0,12,12h8.88a20.25,20.25,0,0,1,19-13H632.374A20.25,20.25,0,0,1,651.37,768Z" fill="#30292c"/><path d="M280.167,614h0a17,17,0,0,1-17-17V582h-40v15a17,17,0,0,1-17,17h0a24,24,0,0,0-24,24V746a24,24,0,0,0,24,24h74a24,24,0,0,0,24-24V638A24,24,0,0,0,280.167,614Z" fill="#fff"/><circle cx="254.992" cy="642.498" r="3.498" fill="#ff415b"/><path d="M254.992,648a5.5,5.5,0,1,1,5.5-5.5A5.505,5.505,0,0,1,254.992,648Zm0-7a1.5,1.5,0,1,0,1.5,1.5A1.5,1.5,0,0,0,254.992,641Z" fill="#30292c"/><path d="M190.167,645V746a16.018,16.018,0,0,0,16,16h74a16.019,16.019,0,0,0,16-16V645Z" fill="#ff415b"/><path d="M280.167,772h-74a26.029,26.029,0,0,1-26-26V638a26.029,26.029,0,0,1,26-26,15.017,15.017,0,0,0,15-15V582a2,2,0,0,1,2-2h40a2,2,0,0,1,2,2v15a15.017,15.017,0,0,0,15,15,26.029,26.029,0,0,1,26,26V746A26.029,26.029,0,0,1,280.167,772Zm-55-188v13a19.021,19.021,0,0,1-19,19,22.025,22.025,0,0,0-22,22V746a22.025,22.025,0,0,0,22,22h74a22.025,22.025,0,0,0,22-22V638a22.025,22.025,0,0,0-22-22,19.021,19.021,0,0,1-19-19V584Z" fill="#30292c"/><rect x="214.167" y="566" width="58" height="28" fill="#8e5645"/><rect x="219" y="566" width="6" height="28" fill="#ae6553"/><rect x="233.333" y="566" width="6" height="28" fill="#ae6553"/><rect x="247.667" y="566" width="6" height="28" fill="#ae6553"/><rect x="262" y="566" width="6" height="28" fill="#ae6553"/><path d="M224.011,557h38.311A6.678,6.678,0,0,1,269,563.678V566a0,0,0,0,1,0,0H217.333a0,0,0,0,1,0,0v-2.322A6.678,6.678,0,0,1,224.011,557Z" fill="#8e5645"/><path d="M272.167,596h-58a2,2,0,0,1-2-2V566a2,2,0,0,1,2-2h58a2,2,0,0,1,2,2v28A2,2,0,0,1,272.167,596Zm-56-4h54V568h-54Z" fill="#30292c"/><path d="M269,568H217.333a2,2,0,0,1-2-2v-2.322A8.689,8.689,0,0,1,224.012,555h38.31A8.688,8.688,0,0,1,271,563.678V566A2,2,0,0,1,269,568Zm-49.667-4H267v-.322A4.684,4.684,0,0,0,262.322,559h-38.31a4.684,4.684,0,0,0-4.679,4.678Z" fill="#30292c"/><path d="M280.167,764h-74a18.021,18.021,0,0,1-18-18V645a2,2,0,0,1,2-2h106a2,2,0,0,1,2,2V746A18.021,18.021,0,0,1,280.167,764Zm-88-117v99a14.015,14.015,0,0,0,14,14h74a14.015,14.015,0,0,0,14-14V647Z" fill="#30292c"/><rect x="205.167" y="659" width="76" height="56" fill="#ffc25d"/><path d="M281.167,717h-76a2,2,0,0,1-2-2V659a2,2,0,0,1,2-2h76a2,2,0,0,1,2,2v56A2,2,0,0,1,281.167,717Zm-74-4h72V661h-72Z" fill="#30292c"/><circle cx="198.491" cy="720.477" r="1.568" fill="#30292c"/><circle cx="227.881" cy="730.284" r="2.625" fill="#30292c"/><circle cx="239.563" cy="743.281" r="3.76" fill="#30292c"/><circle cx="275.563" cy="730.281" r="3.76" fill="#30292c"/><path d="M269,676H218a2,2,0,0,1,0-4h51a2,2,0,0,1,0,4Z" fill="#30292c"/><path d="M269,689H241a2,2,0,0,1,0-4h28a2,2,0,0,1,0,4Z" fill="#30292c"/><path d="M269,700H241a2,2,0,0,1,0-4h28a2,2,0,0,1,0,4Z" fill="#30292c"/><path d="M225,702a9,9,0,1,1,9-9A9.01,9.01,0,0,1,225,702Zm0-14a5,5,0,1,0,5,5A5.006,5.006,0,0,0,225,688Z" fill="#30292c"/><circle cx="235.992" cy="626.113" r="4.883" fill="#ff415b"/><path d="M235.992,633a6.884,6.884,0,1,1,6.883-6.884A6.891,6.891,0,0,1,235.992,633Zm0-9.767a2.884,2.884,0,1,0,2.883,2.883A2.886,2.886,0,0,0,235.992,623.229Z" fill="#30292c"/><path d="M254.658,623.229a4,4,0,1,1,4-4A4,4,0,0,1,254.658,623.229Zm0-4v0Z" fill="#30292c"/><circle cx="280.786" cy="632.435" r="2.872" fill="#30292c"/><circle cx="204.786" cy="636.435" r="2.872" fill="#30292c"/><path d="M638.728,566.741a120.506,120.506,0,1,1-118.937-178.46l-4.11-23.977A150.013,150.013,0,1,0,676.159,579.143Z" fill="#ccc"/><path d="M542,664c-83.813,0-152-68.187-152-152A152.042,152.042,0,0,1,515.332,362.335a2,2,0,0,1,2.32,1.631l4.111,23.977a2,2,0,0,1-1.746,2.325,118.5,118.5,0,1,0,116.965,175.5,2,2,0,0,1,2.374-.922l37.432,12.4a2,2,0,0,1,1.159,2.795A151.992,151.992,0,0,1,542,664ZM514.052,366.638A148.048,148.048,0,0,0,394,512c0,81.607,66.393,148,148,148a147.986,147.986,0,0,0,131.317-79.692l-33.661-11.153A122.506,122.506,0,1,1,517.465,386.549Z" fill="#30292c"/><path d="M511.167,590h0a44,44,0,0,1,44,44v94a0,0,0,0,1,0,0h-88a0,0,0,0,1,0,0V634A44,44,0,0,1,511.167,590Z" fill="#fff"/><circle cx="511.167" cy="633.5" r="27" fill="#00c899"/><circle cx="511.167" cy="633.5" r="12" fill="#00c899"/><path d="M555.167,730h-88a2,2,0,0,1-2-2V634a46,46,0,0,1,92,0v94A2,2,0,0,1,555.167,730Zm-86-4h84V634a42,42,0,0,0-84,0Z" fill="#30292c"/><path d="M511.167,662.5a29,29,0,1,1,29-29A29.034,29.034,0,0,1,511.167,662.5Zm0-54a25,25,0,1,0,25,25A25.028,25.028,0,0,0,511.167,608.5Z" fill="#30292c"/><circle cx="511.167" cy="633.5" r="12" fill="#959595"/><path d="M511.167,647.5a14,14,0,1,1,14-14A14.015,14.015,0,0,1,511.167,647.5Zm0-24a10,10,0,1,0,10,10A10.011,10.011,0,0,0,511.167,623.5Z" fill="#30292c"/><circle cx="661" cy="570" r="27" fill="#fff"/><path d="M661,599a29,29,0,1,1,29-29A29.034,29.034,0,0,1,661,599Zm0-54a25,25,0,1,0,25,25A25.028,25.028,0,0,0,661,545Z" fill="#30292c"/><circle cx="661" cy="570" r="12" fill="#959595"/><path d="M661,584a14,14,0,1,1,14-14A14.015,14.015,0,0,1,661,584Zm0-24a10,10,0,1,0,10,10A10.011,10.011,0,0,0,661,560Z" fill="#30292c"/><rect x="506.059" y="278.121" width="40" height="34.5" transform="translate(-55.831 136.039) rotate(-14)" fill="#00b2c8"/><path d="M546.223,272.566,497.548,284.7a3.988,3.988,0,0,1-4.694-2.455l-5.886-15.52,60.158-15,2.089,16.466A3.989,3.989,0,0,1,546.223,272.566Z" fill="#fff"/><rect x="527.424" y="309.138" width="54" height="200" transform="translate(-82.511 146.281) rotate(-14)" fill="#fff"/><path d="M552.418,514.7a2,2,0,0,1-1.94-1.516L502.094,319.125a2,2,0,0,1,1.457-2.425l52.4-13.063a2,2,0,0,1,2.424,1.456l48.385,194.059a2,2,0,0,1-1.457,2.425l-52.4,13.064A1.977,1.977,0,0,1,552.418,514.7ZM506.459,320.1l47.416,190.178L602.39,498.18,554.973,308Z" fill="#30292c"/><rect x="548.774" y="483.017" width="54" height="23.5" transform="translate(-102.592 153.989) rotate(-14)" fill="#959595"/><path d="M552.418,514.7a2,2,0,0,1-1.94-1.516l-5.685-22.8a2,2,0,0,1,1.457-2.424l52.4-13.064a2,2,0,0,1,2.423,1.456l5.686,22.8a2,2,0,0,1-1.457,2.425l-52.4,13.064A1.977,1.977,0,0,1,552.418,514.7Zm-3.26-23.346,4.717,18.921L602.39,498.18l-4.718-18.922Z" fill="#30292c"/><path d="M510.824,318.948a2,2,0,0,1-1.938-1.517l-8.347-33.475A2,2,0,0,1,502,281.532l38.812-9.677a2,2,0,0,1,2.423,1.457l8.347,33.475a2,2,0,0,1-1.457,2.424l-38.811,9.677A2.039,2.039,0,0,1,510.824,318.948Zm-5.92-34.019,7.379,29.594,34.93-8.709-7.379-29.594Z" fill="#30292c"/><path d="M496.583,286.821a6,6,0,0,1-5.6-3.865L485.1,267.437a2,2,0,0,1,1.386-2.65l60.159-15a2,2,0,0,1,2.467,1.689l2.089,16.466a5.992,5.992,0,0,1-4.493,6.563l-48.675,12.136A5.955,5.955,0,0,1,496.583,286.821Zm-6.946-18.7,5.088,13.413a1.987,1.987,0,0,0,2.339,1.224l48.675-12.136h0a1.989,1.989,0,0,0,1.491-2.179l-1.805-14.233Z" fill="#30292c"/><path d="M581.19,460.633a2,2,0,0,1-1.938-1.516l-5.665-22.724a2,2,0,1,1,3.881-.968l5.665,22.724a2,2,0,0,1-1.457,2.424A1.978,1.978,0,0,1,581.19,460.633Z" fill="#30292c"/><path d="M567.155,404.339a2,2,0,0,1-1.938-1.516l-21.043-84.4a2,2,0,0,1,3.881-.968l21.043,84.4a2,2,0,0,1-1.943,2.484Z" fill="#30292c"/><path d="M537.04,304.22A2,2,0,0,1,535.1,302.7l-4.356-17.466a2,2,0,1,1,3.881-.967l4.355,17.465a2,2,0,0,1-1.942,2.484Z" fill="#30292c"/><circle cx="515" cy="376" r="27" fill="#fff"/><path d="M515,405a29,29,0,1,1,29-29A29.033,29.033,0,0,1,515,405Zm0-54a25,25,0,1,0,25,25A25.028,25.028,0,0,0,515,351Z" fill="#30292c"/><circle cx="515" cy="376" r="12" fill="#959595"/><path d="M515,390a14,14,0,1,1,14-14A14.015,14.015,0,0,1,515,390Zm0-24a10,10,0,1,0,10,10A10.011,10.011,0,0,0,515,366Z" fill="#30292c"/><rect x="541.543" y="541.862" width="182.5" height="14" rx="7" transform="translate(-121.226 183.99) rotate(-15.115)" fill="#fff"/><path d="M551.443,579.834a9,9,0,0,1-2.333-17.692l162.671-43.937a9,9,0,0,1,4.7,17.377h0L553.8,579.519A9.091,9.091,0,0,1,551.443,579.834Zm162.684-57.941a5.02,5.02,0,0,0-1.3.173L550.153,566a5,5,0,0,0,2.609,9.654l162.671-43.936a5,5,0,0,0-1.306-9.828Zm1.827,11.758h0Z" fill="#30292c"/><polygon points="632.174 541.778 557.838 561.856 558.853 553.295 626.988 534.892 632.174 541.778" fill="#959595"/><path d="M557.838,563.855a2,2,0,0,1-1.986-2.235l1.014-8.56a2,2,0,0,1,1.465-1.7l68.136-18.4a2,2,0,0,1,2.119.727l5.186,6.887a2,2,0,0,1-1.076,3.134l-74.337,20.077A1.968,1.968,0,0,1,557.838,563.855Zm2.842-8.982-.508,4.28L628.8,540.619l-2.594-3.444Z" fill="#30292c"/><path d="M929,774H125a4,4,0,0,1,0-8H929a4,4,0,0,1,0,8Z" fill="#30292c"/><path d="M782.126,768a21.024,21.024,0,0,1-21-21V598a2,2,0,0,1,2-2h38a2,2,0,0,1,2,2V747A21.024,21.024,0,0,1,782.126,768Zm-17-168V747a17,17,0,0,0,34,0V600Z" fill="#30292c"/><path d="M900,741H733v14h29.1a19.977,19.977,0,0,0,37.8,0h30.02a20,20,0,0,0,38.164,0H900Z" fill="#ccc"/><path d="M849,771a21.9,21.9,0,0,1-20.5-14H801.275a21.975,21.975,0,0,1-40.55,0H733a2,2,0,0,1-2-2V741a2,2,0,0,1,2-2H900a2,2,0,0,1,2,2v14a2,2,0,0,1-2,2H869.5A21.9,21.9,0,0,1,849,771Zm-49.1-18h30.02a2,2,0,0,1,1.908,1.4,18,18,0,0,0,34.348,0,2,2,0,0,1,1.908-1.4H898V743H735v10h27.1a2,2,0,0,1,1.891,1.35,17.978,17.978,0,0,0,34.014,0A2,2,0,0,1,799.9,753Z" fill="#30292c"/></g></g></svg>