<?xml version="1.0" encoding="UTF-8"?><svg xmlns="http://www.w3.org/2000/svg" viewBox="0 0 1000 1000" x="0px" y="0px" width="1000px" height="1000px" version="1.1" xmlns:xlink="http://www.w3.org/1999/xlink"><g style="isolation:isolate"><g id="Layer_1" data-name="Layer 1"><g opacity="0.6" style="mix-blend-mode:soft-light"><path d="M770.246,402.911H713.054l-28.6-49.564,28.6-49.563h57.192l28.6,49.563Zm-53.727-6h50.262l25.132-43.564-25.132-43.563H716.519l-25.132,43.563Z" fill="#34c1aa"/><polygon points="677.119 250.057 619.928 250.057 591.332 299.621 619.928 349.184 677.119 349.184 705.714 299.621 677.119 250.057" fill="#34c1aa"/><path d="M677.119,241.73H619.928l-28.6-49.563,28.6-49.563h57.191l28.6,49.563Zm-53.726-6h50.261l25.132-43.563L673.654,148.6H623.393L598.26,192.167Z" fill="#34c1aa"/><polygon points="583.992 196.33 526.801 196.33 498.207 245.894 526.801 295.457 583.992 295.457 612.587 245.894 583.992 196.33" fill="#34c1aa"/><path d="M490.866,349.184H433.674L405.08,299.621l28.594-49.564h57.192l28.6,49.564Zm-53.726-6H487.4l25.133-43.563L487.4,256.057H437.14l-25.134,43.564Z" fill="#34c1aa"/><polygon points="304.613 250.057 247.42 250.057 218.827 299.621 247.42 349.184 304.613 349.184 333.207 299.621 304.613 250.057" fill="#34c1aa"/></g><g opacity="0.6" style="mix-blend-mode:soft-light"><path d="M677.119,456.216H619.928l-28.6-49.563,28.6-49.564h57.191l28.6,49.564Zm-53.726-6h50.261l25.132-43.563-25.132-43.564H623.393L598.26,406.653Z" fill="#34c1aa"/><path d="M566.992,600.4H509.8l-28.594-49.563L509.8,501.27h57.191l28.6,49.563Zm-53.726-6h50.261l25.132-43.563L563.527,507.27H513.266l-25.132,43.563Z" fill="#34c1aa"/></g><path d="M719.872,569h38a0,0,0,0,1,0,0V718a19,19,0,0,1-19,19h0a19,19,0,0,1-19-19V569A0,0,0,0,1,719.872,569Z" fill="#fff"/><rect x="708.872" y="553" width="60" height="16" rx="8" fill="#d8d8d8"/><path d="M738.872,739a21.024,21.024,0,0,1-21-21V569a2,2,0,0,1,2-2h38a2,2,0,0,1,2,2V718A21.024,21.024,0,0,1,738.872,739Zm-17-168V718a17,17,0,0,0,34,0V571Z" fill="#133b4f"/><path d="M760.872,571h-44a10,10,0,1,1,0-20h44a10,10,0,0,1,0,20Zm-44-16a6,6,0,1,0,0,12h44a6,6,0,0,0,0-12Z" fill="#133b4f"/><path d="M728.872,664v54a10,10,0,0,0,20,0V664Z" fill="#ec1ce4"/><path d="M738.872,730a12.013,12.013,0,0,1-12-12V664a2,2,0,0,1,2-2h20a2,2,0,0,1,2,2v54A12.013,12.013,0,0,1,738.872,730Zm-8-64v52a8,8,0,0,0,16,0V666Z" fill="#133b4f"/><circle cx="719.949" cy="513.339" r="3.781" fill="#ec1ce4"/><circle cx="733.823" cy="530.76" r="3.192" fill="#ec1ce4"/><circle cx="750.37" cy="481.333" r="7.219" fill="#ec1ce4"/><circle cx="746.245" cy="510.933" r="6.187" fill="#ec1ce4"/><path d="M719.949,519.12a5.781,5.781,0,1,1,5.781-5.781A5.788,5.788,0,0,1,719.949,519.12Zm0-7.562a1.781,1.781,0,1,0,1.781,1.781A1.782,1.782,0,0,0,719.949,511.558Z" fill="#133b4f"/><path d="M733.823,535.952a5.193,5.193,0,1,1,5.193-5.192A5.2,5.2,0,0,1,733.823,535.952Zm0-6.385a1.193,1.193,0,1,0,1.193,1.193A1.195,1.195,0,0,0,733.823,529.567Z" fill="#133b4f"/><path d="M731.906,501.553a4.063,4.063,0,1,1,4.063-4.063A4.067,4.067,0,0,1,731.906,501.553Zm0-4.126v.125l.063-.062A.063.063,0,0,0,731.906,497.427Z" fill="#133b4f"/><path d="M750.369,490.552a9.219,9.219,0,1,1,9.219-9.219A9.229,9.229,0,0,1,750.369,490.552Zm0-14.437a5.219,5.219,0,1,0,5.219,5.218A5.224,5.224,0,0,0,750.369,476.115Z" fill="#133b4f"/><path d="M746.244,519.12a8.188,8.188,0,1,1,8.188-8.187A8.2,8.2,0,0,1,746.244,519.12Zm0-12.375a4.188,4.188,0,1,0,4.188,4.188A4.192,4.192,0,0,0,746.244,506.745Z" fill="#133b4f"/><circle cx="735.381" cy="624.417" r="7.25" fill="#ec1ce4"/><path d="M735.381,633.667a9.25,9.25,0,1,1,9.25-9.25A9.26,9.26,0,0,1,735.381,633.667Zm0-14.5a5.25,5.25,0,1,0,5.25,5.25A5.256,5.256,0,0,0,735.381,619.167Z" fill="#133b4f"/><circle cx="741.622" cy="649.083" r="3.083" fill="#ec1ce4"/><path d="M741.622,654.167a5.084,5.084,0,1,1,5.083-5.084A5.089,5.089,0,0,1,741.622,654.167Zm0-6.167a1.084,1.084,0,1,0,1.083,1.083A1.083,1.083,0,0,0,741.622,648Z" fill="#133b4f"/><circle cx="745.714" cy="583.034" r="4.286" fill="#ec1ce4"/><path d="M745.714,589.32A6.286,6.286,0,1,1,752,583.034,6.293,6.293,0,0,1,745.714,589.32Zm0-8.572A2.286,2.286,0,1,0,748,583.034,2.288,2.288,0,0,0,745.714,580.748Z" fill="#133b4f"/><circle cx="730.631" cy="576.281" r="1.619" fill="#67cc70"/><path d="M730.631,579.9a3.62,3.62,0,1,1,3.619-3.619A3.624,3.624,0,0,1,730.631,579.9Zm0-4a.381.381,0,1,0,.38.381A.382.382,0,0,0,730.631,575.9Z" fill="#133b4f"/><circle cx="740.107" cy="679.568" r="1.568" fill="#133b4f"/><circle cx="731.497" cy="696.375" r="2.625" fill="#133b4f"/><circle cx="743.179" cy="709.372" r="3.76" fill="#133b4f"/><circle cx="737.607" cy="674.943" r="0.568" fill="#133b4f"/><path d="M573.38,604a4,4,0,0,1-4-4V405.512a29.512,29.512,0,1,0-59.024,0V449.7a67.3,67.3,0,0,1-134.606,0v-95.6a40.99,40.99,0,1,0-81.979,0v40.943a4,4,0,0,1-8,0V354.094a48.99,48.99,0,1,1,97.979,0v95.6a59.3,59.3,0,0,0,118.606,0V405.512a37.512,37.512,0,1,1,75.024,0V600A4,4,0,0,1,573.38,604Z" fill="#fff"/><path d="M573.38,606a6.006,6.006,0,0,1-6-6V405.512a27.513,27.513,0,0,0-55.025,0V449.7a69.3,69.3,0,1,1-138.605,0v-95.6a38.99,38.99,0,1,0-77.979,0v40.943a6,6,0,0,1-12,0V354.094a50.99,50.99,0,1,1,101.979,0v95.6a57.3,57.3,0,1,0,114.605,0V405.512a39.513,39.513,0,0,1,79.025,0V600A6.007,6.007,0,0,1,573.38,606ZM539.867,374a31.548,31.548,0,0,1,31.513,31.512V600a2,2,0,0,0,4,0V405.512a35.513,35.513,0,0,0-71.025,0V449.7a61.3,61.3,0,1,1-122.605,0v-95.6a46.99,46.99,0,1,0-93.979,0v40.943a2,2,0,0,0,4,0V354.094a42.99,42.99,0,1,1,85.979,0v95.6a65.3,65.3,0,1,0,130.605,0V405.512A31.547,31.547,0,0,1,539.867,374Z" fill="#133b4f"/><path d="M425.729,190h0a10,10,0,0,1,10,10V770a0,0,0,0,1,0,0h-20a0,0,0,0,1,0,0V200a10,10,0,0,1,10-10Z" fill="#fff"/><path d="M435.729,772h-20a2,2,0,0,1-2-2V200a12,12,0,0,1,24,0V770A2,2,0,0,1,435.729,772Zm-18-4h16V200a8,8,0,0,0-16,0Z" fill="#133b4f"/><path d="M442.729,435.573h27.833a5,5,0,0,1,5,5v0a5,5,0,0,1-5,5H442.729a0,0,0,0,1,0,0v-10A0,0,0,0,1,442.729,435.573Z" fill="#6f8699"/><path d="M470.562,447.573H442.729a2,2,0,0,1-2-2v-10a2,2,0,0,1,2-2h27.833a7,7,0,0,1,0,14Zm-25.833-4h25.833a3,3,0,0,0,0-6H444.729Z" fill="#133b4f"/><rect x="500.126" y="753" width="320" height="17" fill="#dabc95"/><path d="M820.126,772h-320a2,2,0,0,1-2-2V753a2,2,0,0,1,2-2h320a2,2,0,0,1,2,2v17A2,2,0,0,1,820.126,772Zm-318-4h316V755h-316Z" fill="#133b4f"/><rect x="516.257" y="603" width="10" height="150" fill="#d6d9e2"/><path d="M526.257,755h-10a2,2,0,0,1-2-2V603a2,2,0,0,1,2-2h10a2,2,0,0,1,2,2V753A2,2,0,0,1,526.257,755Zm-8-4h6V605h-6Z" fill="#133b4f"/><rect x="793.995" y="603" width="10" height="150" fill="#d6d9e2"/><path d="M804,755H794a2,2,0,0,1-2-2V603a2,2,0,0,1,2-2h10a2,2,0,0,1,2,2V753A2,2,0,0,1,804,755Zm-8-4h6V605h-6Z" fill="#133b4f"/><path d="M283.338,661.7l-.1-2.539c0-.09-.386-9.046-1.881-13.093L279.7,641.6l4.345,1.948c5.28,2.368,9.644,11.613,10.124,12.66l.972,2.117Zm3.179-10.624c.275,1.983.452,3.928.561,5.4l2.4-.686A40.815,40.815,0,0,0,286.517,651.077Z" fill="#133b4f"/><rect x="352.083" y="748" width="123.479" height="22" fill="#6f8699"/><path d="M475.562,772H352.083a2,2,0,0,1-2-2V748a2,2,0,0,1,2-2H475.562a2,2,0,0,1,2,2v22A2,2,0,0,1,475.562,772Zm-121.479-4H473.562V750H354.083Z" fill="#133b4f"/><path d="M321.932,722.912l-21.342-3.6V703.254h8.5a6.4,6.4,0,0,0,6.488-6.038,6.229,6.229,0,0,0-6.226-6.421h-38.9a6.4,6.4,0,0,0-6.488,6.038,6.23,6.23,0,0,0,6.227,6.421h8.76v16.062l-21.342,3.6a8.9,8.9,0,0,0-7.3,10.255l5.2,28.769A9.808,9.808,0,0,0,265.165,770h49.212a9.808,9.808,0,0,0,9.652-8.064l5.2-28.769A8.9,8.9,0,0,0,321.932,722.912Z" fill="#fff"/><path d="M314.376,772H265.165a11.8,11.8,0,0,1-11.62-9.708l-5.2-28.77a10.9,10.9,0,0,1,8.934-12.583l19.674-3.314V705.254h-6.76a8.231,8.231,0,0,1-8.226-8.481,8.428,8.428,0,0,1,8.487-7.978h38.9a8.229,8.229,0,0,1,8.225,8.48,8.426,8.426,0,0,1-8.487,7.979h-6.5v12.371l19.674,3.314A10.9,10.9,0,0,1,331.2,733.5L326,762.292A11.8,11.8,0,0,1,314.376,772ZM270.453,692.8a4.4,4.4,0,0,0-4.489,4.1,4.229,4.229,0,0,0,4.228,4.36h8.76a2,2,0,0,1,2,2v16.062a2,2,0,0,1-1.668,1.973l-21.342,3.6a6.9,6.9,0,0,0-5.657,7.95l5.2,28.746A7.8,7.8,0,0,0,265.165,768h49.211a7.805,7.805,0,0,0,7.685-6.419l5.2-28.769a6.9,6.9,0,0,0-5.661-7.927h0l-21.342-3.6a2,2,0,0,1-1.668-1.973V703.254a2,2,0,0,1,2-2h8.5a4.4,4.4,0,0,0,4.489-4.1,4.229,4.229,0,0,0-4.227-4.361Z" fill="#133b4f"/><path d="M305.644,665.024c-4.078-13.23-12.32-20.419-15.759-24.024-1.926,15-17.6,19.693-16.041,33.8,1.275,11.537,12.323,15.016,17.662,14.112C302.818,687,308.766,675.155,305.644,665.024Z" fill="#ff815f"/><path d="M289.787,691.045a19.111,19.111,0,0,1-11.146-3.816,17.245,17.245,0,0,1-6.785-12.208c-.918-8.307,3.542-13.694,7.856-18.9,3.616-4.368,7.356-8.885,8.189-15.372l.535-4.161,2.9,3.035c.368.386.792.814,1.26,1.285,3.909,3.942,11.186,11.277,14.963,23.532h0a21.436,21.436,0,0,1-2.247,17.312,19.451,19.451,0,0,1-13.468,9.136A12.43,12.43,0,0,1,289.787,691.045Zm1.28-45.989c-1.671,5.638-5.145,9.833-8.275,13.612-4.127,4.986-7.692,9.292-6.96,15.913a13.166,13.166,0,0,0,5.218,9.455,14.365,14.365,0,0,0,10.122,2.9,15.5,15.5,0,0,0,10.73-7.29,17.376,17.376,0,0,0,1.83-14.037h0A49.634,49.634,0,0,0,291.067,645.056Z" fill="#133b4f"/><path d="M296.475,675.155a24.893,24.893,0,0,0-6.766-12.605c-1.01,7.868-9.234,10.333-8.416,17.734a8.379,8.379,0,0,0,9.267,7.4C296.5,686.683,297.408,679.317,296.475,675.155Z" fill="#fb2"/><path d="M289.647,689.758a10.832,10.832,0,0,1-6.411-2.2,9.974,9.974,0,0,1-3.93-7.058c-.527-4.759,2.056-7.877,4.334-10.629,1.894-2.288,3.684-4.449,4.086-7.579l.534-4.16,2.9,3.034c.276.289.617.605,1,.963a22.1,22.1,0,0,1,7.224,11.529,16.388,16.388,0,0,1-2.252,11.714,9.315,9.315,0,0,1-6.233,4.284A7.486,7.486,0,0,1,289.647,689.758Zm1.106-23.424a23.9,23.9,0,0,1-4.032,6.092c-2.112,2.551-3.78,4.565-3.44,7.638a5.994,5.994,0,0,0,2.365,4.306,6.605,6.605,0,0,0,4.58,1.347,5.361,5.361,0,0,0,3.566-2.548,12.4,12.4,0,0,0,1.7-8.581h0A17,17,0,0,0,290.753,666.334Z" fill="#133b4f"/><path d="M261.409,738.333l3.405,18.836A3.442,3.442,0,0,0,268.2,760H311.34a3.442,3.442,0,0,0,3.388-2.831l3.4-18.836Z" fill="#67cf70"/><path d="M311.34,762H268.2a5.44,5.44,0,0,1-5.357-4.475l-3.405-18.837a2,2,0,0,1,1.969-2.355h56.724a2,2,0,0,1,1.968,2.355l-3.4,18.836A5.44,5.44,0,0,1,311.34,762ZM263.8,740.333l2.979,16.48A1.442,1.442,0,0,0,268.2,758H311.34a1.441,1.441,0,0,0,1.42-1.188l2.979-16.479Z" fill="#133b4f"/><path d="M289.771,753a2,2,0,0,1-2-2V690.8a2,2,0,0,1,4,0V751A2,2,0,0,1,289.771,753Z" fill="#133b4f"/><path d="M306.771,465.07V407.036h-34v58.036a7.317,7.317,0,0,1-5.01,6.951,70,70,0,1,0,44.079.02A7.358,7.358,0,0,1,306.771,465.07Z" fill="#fff"/><path d="M289.787,610.481c-.591,0-1.182-.006-1.775-.021A72,72,0,0,1,231.136,496.7a72.623,72.623,0,0,1,36-26.571,5.307,5.307,0,0,0,3.638-5.052V407.037a2,2,0,0,1,2-2h34a2,2,0,0,1,2,2v58.032a5.359,5.359,0,0,0,3.7,5.076,72,72,0,0,1-22.683,140.336ZM274.771,409.037v56.035a9.3,9.3,0,0,1-6.381,8.85,68.591,68.591,0,0,0-34,25.1,68,68,0,1,0,76.818-25.079,9.353,9.353,0,0,1-6.438-8.872V409.037Z" fill="#133b4f"/><path d="M347.326,521.5h-.021a13.533,13.533,0,0,0-21.534-7.712,9.513,9.513,0,0,0-11.039-.142c.02-.253.039-.507.039-.765a9.532,9.532,0,0,0-13.707-8.586A18.5,18.5,0,0,0,267.271,514.7a33.026,33.026,0,0,0,1.306,6.8c.021-.276.021,0,.021-.276,0-6.075-6.252-11.557-12.327-11.557a11,11,0,0,0-11,11c0,.281.021.557.042.833H232.184a60.761,60.761,0,0,0-2.389,18.723,60.241,60.241,0,0,0,58.5,58.241c.492.012.984.017,1.473.017h0A60.024,60.024,0,0,0,347.326,521.5Z" fill="#f6164c"/><path d="M289.773,600.481c-.507,0-1.015,0-1.523-.018A62.241,62.241,0,0,1,227.8,540.279a62.756,62.756,0,0,1,2.468-19.338,2,2,0,0,1,1.92-1.441h11.139a13.018,13.018,0,0,1,12.948-11.833,14.572,14.572,0,0,1,9.289,3.6,20.5,20.5,0,0,1,36.194-9.392,11.386,11.386,0,0,1,3.468-.538,11.569,11.569,0,0,1,11.309,9.2,11.667,11.667,0,0,1,9.179.848,15.536,15.536,0,0,1,23.478,9.39q.032.081.057.165a62.007,62.007,0,0,1-59.472,79.545ZM233.705,523.5a58.8,58.8,0,0,0-1.911,16.666,58,58,0,1,0,113.689-17.839,2.017,2.017,0,0,1-.129-.389,11.63,11.63,0,0,0-11.268-9.015A11.436,11.436,0,0,0,327,515.365a2,2,0,0,1-2.408.039,7.626,7.626,0,0,0-8.721-.114,2,2,0,0,1-3.132-1.8c.015-.2.032-.4.032-.606a7.558,7.558,0,0,0-7.549-7.549,7.467,7.467,0,0,0-3.285.763,2,2,0,0,1-2.525-.673,16.5,16.5,0,0,0-30.141,9.28,10.507,10.507,0,0,0,.135,1.486,11.683,11.683,0,0,1,1.192,5.036,2.8,2.8,0,0,1-.026.417,2.036,2.036,0,0,1-1.8,1.817,1.986,1.986,0,0,1-2.113-1.389,45.821,45.821,0,0,1-1.105-4.647,11.09,11.09,0,0,0-9.284-5.755,9.01,9.01,0,0,0-9,9c0,.229.019.453.036.679a2,2,0,0,1-1.994,2.154Z" fill="#133b4f"/><path d="M247.17,528.845a2,2,0,0,1-1.656-.876,13,13,0,0,1,10.757-20.3c6.6,0,14.31,3.4,14.31,13a2,2,0,0,1-4,0c0-8.351-7.892-9-10.31-9a9,9,0,0,0-7.449,14.054,2,2,0,0,1-1.652,3.124Z" fill="#133b4f"/><path d="M267.441,519.24a2,2,0,0,1-1.979-1.728,20.5,20.5,0,0,1,37.255-14.35,2,2,0,0,1-3.305,2.254,16.5,16.5,0,0,0-30.141,9.286,16.774,16.774,0,0,0,.154,2.267,2,2,0,0,1-1.71,2.253A2.124,2.124,0,0,1,267.441,519.24Z" fill="#133b4f"/><path d="M296.228,511.666a2,2,0,0,1-1.883-2.675,11.655,11.655,0,0,1,5.841-6.506,2,2,0,0,1,1.746,3.6,7.617,7.617,0,0,0-3.821,4.254A2,2,0,0,1,296.228,511.666Z" fill="#133b4f"/><path d="M314.771,514.882a2,2,0,0,1-2-2,7.558,7.558,0,0,0-7.549-7.55,7.465,7.465,0,0,0-3.29.753,2,2,0,0,1-1.746-3.6,11.554,11.554,0,0,1,16.585,10.4A2,2,0,0,1,314.771,514.882Z" fill="#133b4f"/><path d="M325.776,515.78a1.994,1.994,0,0,1-1.177-.384,7.633,7.633,0,0,0-7.585-.762A2,2,0,1,1,315.348,511a11.563,11.563,0,0,1,11.609,1.167,2,2,0,0,1-1.181,3.616Z" fill="#133b4f"/><path d="M320.529,526.479a2,2,0,0,1-2-2,15.466,15.466,0,0,1,6.006-12.28,2,2,0,0,1,2.457,3.156,11.493,11.493,0,0,0-4.463,9.124A2,2,0,0,1,320.529,526.479Z" fill="#133b4f"/><path d="M347.313,523.5a2,2,0,0,1-1.949-1.562,11.631,11.631,0,0,0-11.278-9.015,11.446,11.446,0,0,0-7.094,2.432,2,2,0,1,1-2.458-3.156,15.412,15.412,0,0,1,9.552-3.276,15.658,15.658,0,0,1,15.181,12.139,2,2,0,0,1-1.954,2.438Z" fill="#133b4f"/><rect x="280.407" y="380" width="18.728" height="35.5" fill="#ce7867"/><path d="M299.135,417.5H280.407a2,2,0,0,1-2-2V380a2,2,0,0,1,2-2h18.728a2,2,0,0,1,2,2v35.5A2,2,0,0,1,299.135,417.5Zm-16.728-4h14.728V382H282.407Z" fill="#133b4f"/><rect x="260.771" y="391.036" width="58" height="16" rx="8" fill="#d8d8d8"/><path d="M310.771,409.037h-42a10,10,0,0,1,0-20h42a10,10,0,0,1,0,20Zm-42-16a6,6,0,0,0,0,12h42a6,6,0,0,0,0-12Z" fill="#133b4f"/><circle cx="289.771" cy="470.81" r="7.499" fill="#f6164c"/><path d="M289.771,480.309a9.5,9.5,0,1,1,9.5-9.5A9.509,9.509,0,0,1,289.771,480.309Zm0-15a5.5,5.5,0,1,0,5.5,5.5A5.505,5.505,0,0,0,289.771,465.311Z" fill="#133b4f"/><circle cx="313.333" cy="496" r="4" fill="#f6164c"/><path d="M313.333,502a6,6,0,1,1,6-6A6.007,6.007,0,0,1,313.333,502Zm0-8a2,2,0,1,0,2,2A2,2,0,0,0,313.333,494Z" fill="#133b4f"/><path d="M272.763,491.291a3.737,3.737,0,1,1,3.737-3.737A3.741,3.741,0,0,1,272.763,491.291Zm0-4a.263.263,0,0,0-.263.263c0,.29.526.29.526,0A.263.263,0,0,0,272.763,487.291Z" fill="#133b4f"/><circle cx="272.54" cy="550.333" r="3.96" fill="#133b4f"/><circle cx="293.684" cy="570.584" r="6.375" fill="#133b4f"/><circle cx="316.181" cy="552.749" r="2.319" fill="#133b4f"/><circle cx="296.228" cy="534.709" r="1.647" fill="#133b4f"/><rect x="408.729" y="423.573" width="34" height="34" fill="#6f8699"/><path d="M442.729,459.573h-34a2,2,0,0,1-2-2v-34a2,2,0,0,1,2-2h34a2,2,0,0,1,2,2v34A2,2,0,0,1,442.729,459.573Zm-32-4h30v-30h-30Z" fill="#133b4f"/><path d="M589.5,654a4,4,0,0,1-4-4V520.312a39.313,39.313,0,0,1,78.626,0V610.5a4,4,0,0,1-8,0V520.312a31.313,31.313,0,0,0-62.626,0V650A4,4,0,0,1,589.5,654Z" fill="#fff"/><path d="M589.5,656a6.006,6.006,0,0,1-6-6V520.312a41.313,41.313,0,0,1,82.626,0V610.5a6,6,0,0,1-12,0V520.312a29.313,29.313,0,0,0-58.626,0V650A6.006,6.006,0,0,1,589.5,656Zm35.312-173A37.354,37.354,0,0,0,587.5,520.312V650a2,2,0,0,0,4,0V520.312a33.313,33.313,0,0,1,66.626,0V610.5a2,2,0,0,0,4,0V520.312A37.355,37.355,0,0,0,624.812,483Z" fill="#133b4f"/><path d="M641.126,569h38a0,0,0,0,1,0,0V718a19,19,0,0,1-19,19h0a19,19,0,0,1-19-19V569A0,0,0,0,1,641.126,569Z" fill="#fff"/><path d="M660.126,739a21.024,21.024,0,0,1-21-21V569a2,2,0,0,1,2-2h38a2,2,0,0,1,2,2V718A21.024,21.024,0,0,1,660.126,739Zm-17-168V718a17,17,0,0,0,34,0V571Z" fill="#133b4f"/><rect x="644.376" y="533.333" width="31.5" height="35.667" fill="#ce7867"/><path d="M675.876,571h-31.5a2,2,0,0,1-2-2V533.333a2,2,0,0,1,2-2h31.5a2,2,0,0,1,2,2V569A2,2,0,0,1,675.876,571Zm-29.5-4h27.5V535.333h-27.5Z" fill="#133b4f"/><rect x="630.126" y="553" width="60" height="16" rx="8" fill="#d8d8d8"/><path d="M682.126,571h-44a10,10,0,0,1,0-20h44a10,10,0,0,1,0,20Zm-44-16a6,6,0,0,0,0,12h44a6,6,0,0,0,0-12Z" fill="#133b4f"/><path d="M650.126,687.155V718a10,10,0,0,0,20,0V687.155Z" fill="#984db2"/><path d="M660.126,730a12.013,12.013,0,0,1-12-12V687.155a2,2,0,0,1,2-2h20a2,2,0,0,1,2,2V718A12.013,12.013,0,0,1,660.126,730Zm-8-40.845V718a8,8,0,0,0,16,0V689.155Z" fill="#133b4f"/><circle cx="656.75" cy="661" r="3" fill="#984db2"/><path d="M656.75,666a5,5,0,1,1,5-5A5.006,5.006,0,0,1,656.75,666Zm0-6a1,1,0,1,0,1,1A1,1,0,0,0,656.75,660Z" fill="#133b4f"/><circle cx="661.75" cy="630.75" r="5" fill="#984db2"/><path d="M661.75,637.75a7,7,0,1,1,7-7A7.009,7.009,0,0,1,661.75,637.75Zm0-10a3,3,0,1,0,3,3A3,3,0,0,0,661.75,627.75Z" fill="#133b4f"/><circle cx="662.417" cy="676" r="2" fill="#984db2"/><path d="M662.417,680a4,4,0,1,1,4-4A4,4,0,0,1,662.417,680Zm0-4v0Z" fill="#133b4f"/><circle cx="658.545" cy="709.372" r="1.795" fill="#133b4f"/><circle cx="659.545" cy="699.205" r="2.872" fill="#133b4f"/><rect x="565.63" y="533.333" width="31.5" height="35.667" fill="#ce7867"/><path d="M597.13,571h-31.5a2,2,0,0,1-2-2V533.333a2,2,0,0,1,2-2h31.5a2,2,0,0,1,2,2V569A2,2,0,0,1,597.13,571Zm-29.5-4h27.5V535.333h-27.5Z" fill="#133b4f"/><rect x="551.38" y="553" width="60" height="16" rx="8" fill="#d8d8d8"/><path d="M603.38,571h-44a10,10,0,0,1,0-20h44a10,10,0,1,1,0,20Zm-44-16a6,6,0,0,0,0,12h44a6,6,0,1,0,0-12Z" fill="#133b4f"/><path d="M562.38,569h38a0,0,0,0,1,0,0V718a19,19,0,0,1-19,19h0a19,19,0,0,1-19-19V569A0,0,0,0,1,562.38,569Z" fill="#fff"/><path d="M581.38,739a21.024,21.024,0,0,1-21-21V569a2,2,0,0,1,2-2h38a2,2,0,0,1,2,2V718A21.024,21.024,0,0,1,581.38,739Zm-17-168V718a17,17,0,0,0,34,0V571Z" fill="#133b4f"/><path d="M571.38,638.333V718a10,10,0,0,0,20,0V638.333Z" fill="#f3c50d"/><path d="M581.38,730a12.013,12.013,0,0,1-12-12V638.333a2,2,0,0,1,2-2h20a2,2,0,0,1,2,2V718A12.013,12.013,0,0,1,581.38,730Zm-8-89.667V718a8,8,0,0,0,16,0V640.333Z" fill="#133b4f"/><circle cx="578.508" cy="674" r="2.872" fill="#133b4f"/><circle cx="577.38" cy="622.333" r="1.934" fill="#133b4f"/><circle cx="584.252" cy="650.128" r="1.248" fill="#133b4f"/><circle cx="584.252" cy="693.461" r="1.205" fill="#133b4f"/><rect x="500.126" y="595" width="320" height="8" fill="#dabc95"/><path d="M820.126,605h-320a2,2,0,0,1-2-2v-8a2,2,0,0,1,2-2h320a2,2,0,0,1,2,2v8A2,2,0,0,1,820.126,605Zm-318-4h316v-4h-316Z" fill="#133b4f"/><rect x="371.083" y="362.354" width="17.167" height="88.198" fill="#ce7867"/><path d="M388.25,452.552H371.083a2,2,0,0,1-2-2v-88.2a2,2,0,0,1,2-2H388.25a2,2,0,0,1,2,2v88.2A2,2,0,0,1,388.25,452.552Zm-15.167-4H386.25v-84.2H373.083Z" fill="#133b4f"/><rect x="325.5" y="435.573" width="83.229" height="10" fill="#6f8699"/><path d="M408.729,447.573H325.5a2,2,0,0,1-2-2v-10a2,2,0,0,1,2-2h83.229a2,2,0,0,1,2,2v10A2,2,0,0,1,408.729,447.573Zm-81.229-4h79.229v-6H327.5Z" fill="#133b4f"/><rect x="246.771" y="427.573" width="86" height="26" rx="13" transform="translate(579.542 881.146) rotate(180)" fill="#6f8699"/><path d="M319.771,455.573h-60a15,15,0,0,1,0-30h60a15,15,0,1,1,0,30Zm-60-26a11,11,0,0,0,0,22h60a11,11,0,1,0,0-22Z" fill="#133b4f"/><path d="M883.833,773h-750a3,3,0,1,1,0-6h750a3,3,0,1,1,0,6Z" fill="#133b4f"/></g></g></svg>