<svg width="441" height="212" viewBox="0 0 441 212" fill="none" xmlns="http://www.w3.org/2000/svg">
<path d="M95.2145 90.085C91.3401 90.085 87.6243 88.5459 84.8847 85.8063C82.1451 83.0666 80.606 79.3509 80.606 75.4765C80.606 71.6021 82.1451 67.8864 84.8847 65.1467C87.6243 62.4071 91.3401 60.868 95.2145 60.868C107.479 60.8545 119.237 55.9765 127.91 47.3043C136.582 38.632 141.461 26.8737 141.475 14.609C141.475 10.7346 143.014 7.01885 145.754 4.27922C148.493 1.5396 152.209 0.000488281 156.083 0.000488281C159.958 0.000488281 163.674 1.5396 166.413 4.27922C169.153 7.01885 170.692 10.7346 170.692 14.609C170.669 34.6198 162.71 53.8045 148.56 67.9541C134.41 82.1038 115.225 90.0628 95.2145 90.085Z" fill="#EC6C0C"/>
<path d="M14.6095 211.823C10.735 211.823 7.01911 210.284 4.27939 207.544C1.53967 204.804 0.000488281 201.089 0.000488281 197.214C0.0229864 177.203 7.98239 158.018 22.1324 143.868C36.2825 129.718 55.4675 121.759 75.4785 121.737C79.3529 121.737 83.0686 123.276 85.8083 126.016C88.5479 128.755 90.087 132.471 90.087 136.346C90.087 140.22 88.5479 143.936 85.8083 146.675C83.0686 149.415 79.3529 150.954 75.4785 150.954C63.2137 150.968 51.4552 155.846 42.7826 164.518C34.11 173.191 29.2315 184.949 29.2175 197.214C29.2175 201.088 27.6785 204.804 24.939 207.544C22.1995 210.284 18.4839 211.823 14.6095 211.823Z" fill="#BE3818"/>
<path d="M95.2145 211.823C91.361 211.791 87.6762 210.238 84.9626 207.502C82.2489 204.766 80.7263 201.068 80.7263 197.214C80.7263 193.361 82.2489 189.663 84.9626 186.927C87.6762 184.191 91.361 182.638 95.2145 182.606C101.289 182.606 107.305 181.409 112.917 179.085C118.53 176.76 123.629 173.352 127.925 169.057C132.221 164.761 135.628 159.661 137.953 154.049C140.278 148.436 141.474 142.42 141.474 136.345C141.474 130.27 140.278 124.255 137.953 118.642C135.628 113.03 132.221 107.93 127.925 103.634C123.629 99.3386 118.53 95.9311 112.917 93.6063C107.305 91.2815 101.289 90.0849 95.2145 90.0849C91.3401 90.0849 87.6243 88.5458 84.8847 85.8062C82.1451 83.0666 80.606 79.3509 80.606 75.4764C80.606 71.602 82.1451 67.8863 84.8847 65.1467C87.6243 62.407 91.3401 60.8679 95.2145 60.8679C105.149 60.8318 114.993 62.7574 124.182 66.5343C133.372 70.3112 141.725 75.865 148.762 82.8774C155.8 89.8897 161.385 98.2225 165.195 107.398C169.005 116.573 170.967 126.41 170.967 136.345C170.967 146.28 169.005 156.118 165.195 165.293C161.385 174.468 155.8 182.801 148.762 189.813C141.725 196.826 133.372 202.38 124.182 206.157C114.993 209.934 105.149 211.859 95.2145 211.823Z" fill="url(#paint0_linear)"/>
<path d="M147.53 68.96C154.857 61.9314 160.687 53.4928 164.667 44.1523C168.648 34.8117 170.697 24.7623 170.692 14.609C170.692 10.7346 169.153 7.01885 166.413 4.27922C163.674 1.5396 159.958 0.000488281 156.084 0.000488281C152.209 0.000488281 148.493 1.5396 145.754 4.27922C143.014 7.01885 141.475 10.7346 141.475 14.609C141.471 22.4671 139.466 30.1948 135.648 37.0633C131.831 43.9318 126.327 49.7148 119.655 53.867C129.911 56.8659 139.413 62.0106 147.53 68.96Z" fill="url(#paint1_linear)"/>
<path d="M75.4785 150.954C55.4607 150.954 36.2628 143.002 22.1082 128.847C7.95347 114.693 0.00146484 95.4947 0.00146484 75.477C0.00146484 55.4592 7.95347 36.2614 22.1082 22.1067C36.2628 7.95201 55.4607 0 75.4785 0C79.3529 0 83.0686 1.53911 85.8082 4.27873C88.5479 7.01836 90.087 10.7341 90.087 14.6085C90.087 18.4829 88.5479 22.1986 85.8082 24.9383C83.0686 27.6779 79.3529 29.217 75.4785 29.217C69.4035 29.217 63.3881 30.4135 57.7756 32.7383C52.163 35.0631 47.0634 38.4706 42.7677 42.7662C38.4721 47.0619 35.0646 52.1615 32.7398 57.7741C30.415 63.3866 29.2185 69.402 29.2185 75.477C29.2185 81.5519 30.415 87.5674 32.7398 93.1799C35.0646 98.7924 38.4721 103.892 42.7677 108.188C47.0634 112.483 52.163 115.891 57.7756 118.216C63.3881 120.54 69.4035 121.737 75.4785 121.737C79.3529 121.737 83.0686 123.276 85.8082 126.016C88.5479 128.755 90.087 132.471 90.087 136.345C90.087 140.22 88.5479 143.936 85.8082 146.675C83.0686 149.415 79.3529 150.954 75.4785 150.954Z" fill="url(#paint2_linear)"/>
<path d="M23.1635 142.862C15.8359 149.891 10.0063 158.329 6.02559 167.67C2.04488 177.011 -0.00461802 187.06 0.000500034 197.214C-0.0154565 199.143 0.350625 201.055 1.07762 202.842C1.80461 204.628 2.87814 206.253 4.23625 207.622C5.59436 208.992 7.21018 210.079 8.99049 210.82C10.7708 211.562 12.6804 211.944 14.609 211.944C16.5377 211.944 18.4473 211.562 20.2276 210.82C22.0079 210.079 23.6237 208.992 24.9818 207.622C26.3399 206.253 27.4134 204.628 28.1404 202.842C28.8674 201.055 29.2335 199.143 29.2175 197.214C29.2214 189.356 31.2268 181.628 35.0446 174.759C38.8623 167.89 44.3667 162.107 51.0385 157.955C40.7823 154.956 31.2807 149.811 23.1635 142.862Z" fill="#E64A1A"/>
<path d="M218.512 102.328L202.234 101.027L201.602 109.535H229.375L230.746 102.68H236.23L235 120.996L183.953 122.93V109.535H194.395L192.883 85.8398L183.953 86.4375V73.1836L236.23 74.2734V94.5586L230.746 95.6484L229.656 83.4844L203.465 85.207L202.656 95.4375L218.512 94.4883V102.328ZM301.129 70.5117L291.707 95.6484L286.996 94.4883L288.016 89.3203C286.117 88.125 284.195 87.2109 282.25 86.5781C280.328 85.9219 278.582 85.4414 277.012 85.1367C275.184 84.7852 273.402 84.5859 271.668 84.5391C269.863 84.5391 268.012 84.6328 266.113 84.8203C264.238 84.9844 262.422 85.2773 260.664 85.6992C258.906 86.1211 257.242 86.6836 255.672 87.3867C254.125 88.0898 252.766 88.957 251.594 89.9883C250.445 91.0195 249.531 92.25 248.852 93.6797C248.172 95.0859 247.832 96.7031 247.832 98.5312C247.832 100.828 248.301 102.914 249.238 104.789C250.176 106.664 251.535 108.27 253.316 109.605C255.121 110.941 257.336 111.973 259.961 112.699C262.609 113.426 265.621 113.789 268.996 113.789C271.316 113.742 273.672 113.52 276.062 113.121C277.07 112.957 278.148 112.746 279.297 112.488C280.445 112.23 281.605 111.914 282.777 111.539C283.949 111.141 285.121 110.684 286.293 110.168C287.488 109.652 288.637 109.055 289.738 108.375L293.359 119.484C292.797 120.047 292.012 120.539 291.004 120.961C290.02 121.383 288.906 121.758 287.664 122.086C286.445 122.391 285.145 122.648 283.762 122.859C282.379 123.07 281.008 123.246 279.648 123.387C276.461 123.715 273.016 123.902 269.312 123.949C264.438 123.949 260.254 123.27 256.762 121.91C253.27 120.527 250.398 118.676 248.148 116.355C245.922 114.012 244.281 111.305 243.227 108.234C242.172 105.164 241.645 101.93 241.645 98.5312C241.645 95.4141 242.09 92.5898 242.98 90.0586C243.895 87.5039 245.125 85.2305 246.672 83.2383C248.242 81.2227 250.059 79.4883 252.121 78.0352C254.184 76.5586 256.363 75.3516 258.66 74.4141C260.98 73.4766 263.348 72.7969 265.762 72.375C268.199 71.9297 270.555 71.7422 272.828 71.8125C274.562 71.9062 276.414 72.1055 278.383 72.4102C280.07 72.668 281.98 73.0547 284.113 73.5703C286.27 74.0859 288.484 74.7891 290.758 75.6797L292.199 68.7188L301.129 70.5117ZM365.5 123.949L335.266 123L335.055 114.07L347.219 113.578L344.195 107.953H320.957L318.355 113.578L329.852 113.648L329.359 124.723L299.195 122.191L299.406 113.367L308.547 113.438L325.492 84.6094L309.285 85.2773V73.8867H339.238L354.566 113.297L365.5 112.84V123.949ZM323.172 103.137H341.594L331.68 84.6797L323.172 103.137ZM402.449 113.438L402.238 122.367L372.004 123.281V112.207L383.746 112.699L381.496 84.3281L368.98 84.3984L368.77 94.6992H362.723L364.516 73.7461L410.746 71.8828L413.418 93.7852L406.773 94.6992L406.562 84.1875L392.605 84.2578L390.285 112.91L402.449 113.438Z" fill="#E9592D"/>
<defs>
<linearGradient id="paint0_linear" x1="125.786" y1="211.823" x2="125.786" y2="60.8674" gradientUnits="userSpaceOnUse">
<stop stop-color="#E9592D"/>
<stop offset="1" stop-color="#F39519"/>
</linearGradient>
<linearGradient id="paint1_linear" x1="133.486" y1="61.8572" x2="179.98" y2="17.7809" gradientUnits="userSpaceOnUse">
<stop offset="0.005" stop-color="#F39519"/>
<stop offset="0.146" stop-color="#F39519"/>
<stop offset="1" stop-color="#F39519"/>
</linearGradient>
<linearGradient id="paint2_linear" x1="45.0442" y1="150.954" x2="45.0442" y2="0" gradientUnits="userSpaceOnUse">
<stop stop-color="#E9592D"/>
<stop offset="1" stop-color="#F39519"/>
</linearGradient>
</defs>
</svg>
