<?xml version="1.0" encoding="UTF-8"?><svg id="Layer_1" data-name="Layer 1" xmlns="http://www.w3.org/2000/svg" viewBox="0 0 1000 1000" x="0px" y="0px" width="1000px" height="1000px" version="1.1" xmlns:xlink="http://www.w3.org/1999/xlink"><rect x="348.339" y="371.647" width="318" height="8" fill="#202b52"/><rect x="348.339" y="363.647" width="318" height="8" fill="#3a4775"/><rect x="348.339" y="450.107" width="318" height="8" fill="#202b52"/><rect x="348.339" y="442.107" width="318" height="8" fill="#3a4775"/><rect x="348.339" y="531.658" width="318" height="8" fill="#202b52"/><rect x="348.339" y="523.658" width="318" height="8" fill="#3a4775"/><rect x="348.339" y="625.647" width="318" height="8" fill="#202b52"/><rect x="348.339" y="617.647" width="318" height="8" fill="#3a4775"/><circle cx="410.005" cy="371.647" r="27" fill="#3bceff"/><path d="M415.005,390.647a27,27,0,0,1-25.045-37.085,27,27,0,1,0,45.091,28.171A26.93,26.93,0,0,1,415.005,390.647Z" fill="#2fafdc"/><path d="M410.005,401.647a30,30,0,1,1,30-30A30.034,30.034,0,0,1,410.005,401.647Zm0-54a24,24,0,1,0,24,24A24.027,24.027,0,0,0,410.005,347.647Z" fill="#202b52"/><circle cx="475.005" cy="371.647" r="27" fill="#12b0ff"/><path d="M480.005,390.647a27,27,0,0,1-25.045-37.085,27,27,0,1,0,45.091,28.171A26.93,26.93,0,0,1,480.005,390.647Z" fill="#129be5"/><path d="M475.005,401.647a30,30,0,1,1,30-30A30.034,30.034,0,0,1,475.005,401.647Zm0-54a24,24,0,1,0,24,24A24.028,24.028,0,0,0,475.005,347.647Z" fill="#202b52"/><circle cx="539.005" cy="371.647" r="27" fill="#5392ff"/><path d="M544.005,390.647a27,27,0,0,1-25.045-37.085,27,27,0,1,0,45.091,28.171A26.93,26.93,0,0,1,544.005,390.647Z" fill="#487fdf"/><path d="M539.006,401.647a30,30,0,1,1,30-30A30.034,30.034,0,0,1,539.006,401.647Zm0-54a24,24,0,1,0,24,24A24.027,24.027,0,0,0,539.006,347.647Z" fill="#202b52"/><circle cx="507.339" cy="450.107" r="27" fill="#f8d96b"/><path d="M513.339,470.107a27,27,0,0,1-23.2-40.814,27,27,0,1,0,40.4,34.627A26.888,26.888,0,0,1,513.339,470.107Z" fill="#f2b955"/><path d="M507.339,480.106a30,30,0,1,1,30-30A30.034,30.034,0,0,1,507.339,480.106Zm0-54a24,24,0,1,0,24,24A24.027,24.027,0,0,0,507.339,426.106Z" fill="#202b52"/><circle cx="608.088" cy="450.107" r="27" fill="#fc3a4d"/><path d="M614.088,470.107a27,27,0,0,1-23.2-40.814,27,27,0,1,0,40.4,34.627A26.886,26.886,0,0,1,614.088,470.107Z" fill="#e82e4a"/><path d="M608.088,480.106a30,30,0,1,1,30-30A30.034,30.034,0,0,1,608.088,480.106Zm0-54a24,24,0,1,0,24,24A24.027,24.027,0,0,0,608.088,426.106Z" fill="#202b52"/><circle cx="410.005" cy="531.658" r="27" fill="#87d14b"/><path d="M416.005,551.658a27,27,0,0,1-23.2-40.814,27,27,0,1,0,40.4,34.628A26.894,26.894,0,0,1,416.005,551.658Z" fill="#79ba3a"/><path d="M427.005,533.157a1.5,1.5,0,0,1-1.5-1.5,15.517,15.517,0,0,0-15.5-15.5,1.5,1.5,0,0,1,0-3,18.52,18.52,0,0,1,18.5,18.5A1.5,1.5,0,0,1,427.005,533.157Z" fill="#fff"/><path d="M410.005,561.658a30,30,0,1,1,30-30A30.034,30.034,0,0,1,410.005,561.658Zm0-54a24,24,0,1,0,24,24A24.027,24.027,0,0,0,410.005,507.658Z" fill="#202b52"/><circle cx="480.339" cy="531.658" r="27" fill="#78d698"/><circle cx="480.339" cy="531.658" r="27" fill="#78d698"/><path d="M486.339,551.658a27,27,0,0,1-23.2-40.814,27,27,0,1,0,40.4,34.628A26.893,26.893,0,0,1,486.339,551.658Z" fill="#5bc47b"/><path d="M497.339,533.157a1.5,1.5,0,0,1-1.5-1.5,15.517,15.517,0,0,0-15.5-15.5,1.5,1.5,0,0,1,0-3,18.521,18.521,0,0,1,18.5,18.5A1.5,1.5,0,0,1,497.339,533.157Z" fill="#fff"/><path d="M480.339,561.658a30,30,0,1,1,30-30A30.034,30.034,0,0,1,480.339,561.658Zm0-54a24,24,0,1,0,24,24A24.027,24.027,0,0,0,480.339,507.658Z" fill="#202b52"/><circle cx="451.339" cy="625.647" r="27" fill="#e17555"/><path d="M457.339,645.647a27,27,0,0,1-23.2-40.813,27,27,0,1,0,40.4,34.627A26.887,26.887,0,0,1,457.339,645.647Z" fill="#e45e5b"/><path d="M468.339,627.146a1.5,1.5,0,0,1-1.5-1.5,15.518,15.518,0,0,0-15.5-15.5,1.5,1.5,0,1,1,0-3,18.521,18.521,0,0,1,18.5,18.5A1.5,1.5,0,0,1,468.339,627.146Z" fill="#fff"/><path d="M451.339,655.647a30,30,0,1,1,30-30A30.034,30.034,0,0,1,451.339,655.647Zm0-54a24,24,0,1,0,24,24A24.027,24.027,0,0,0,451.339,601.647Z" fill="#202b52"/><circle cx="512.677" cy="625.647" r="27" fill="#9e3b53"/><path d="M518.677,645.647a27,27,0,0,1-23.2-40.813,27,27,0,1,0,40.4,34.627A26.888,26.888,0,0,1,518.677,645.647Z" fill="#883042"/><path d="M529.678,627.146a1.5,1.5,0,0,1-1.5-1.5,15.518,15.518,0,0,0-15.5-15.5,1.5,1.5,0,0,1,0-3,18.521,18.521,0,0,1,18.5,18.5A1.5,1.5,0,0,1,529.678,627.146Z" fill="#fff"/><path d="M512.678,655.647a30,30,0,1,1,30-30A30.034,30.034,0,0,1,512.678,655.647Zm0-54a24,24,0,1,0,24,24A24.028,24.028,0,0,0,512.678,601.647Z" fill="#202b52"/><circle cx="623.494" cy="625.647" r="27" fill="#53325a"/><path d="M629.494,645.647a27,27,0,0,1-23.2-40.813,27,27,0,1,0,40.4,34.627A26.887,26.887,0,0,1,629.494,645.647Z" fill="#4a2d51"/><path d="M640.494,627.146a1.5,1.5,0,0,1-1.5-1.5,15.518,15.518,0,0,0-15.5-15.5,1.5,1.5,0,1,1,0-3,18.521,18.521,0,0,1,18.5,18.5A1.5,1.5,0,0,1,640.494,627.146Z" fill="#fff"/><path d="M623.493,655.647a30,30,0,1,1,30-30A30.034,30.034,0,0,1,623.493,655.647Zm0-54a24,24,0,1,0,24,24A24.028,24.028,0,0,0,623.493,601.647Z" fill="#202b52"/><rect x="313.339" y="317.107" width="36" height="365.787" rx="18" fill="#fdba4f"/><path d="M328.339,664.893V335.107a17.988,17.988,0,0,1,10.5-16.348,17.973,17.973,0,0,0-25.5,16.348V664.893a17.973,17.973,0,0,0,25.5,16.348A17.988,17.988,0,0,1,328.339,664.893Z" fill="#e89d3a"/><rect x="665.339" y="317.107" width="36" height="365.787" rx="18" fill="#fdba4f"/><path d="M680.339,664.893V335.107a17.988,17.988,0,0,1,10.5-16.348,17.973,17.973,0,0,0-25.5,16.348V664.893a17.973,17.973,0,0,0,25.5,16.348A17.988,17.988,0,0,1,680.339,664.893Z" fill="#e89d3a"/><path d="M331.339,685.894a21.024,21.024,0,0,1-21-21V335.106a21,21,0,0,1,42,0V664.894A21.024,21.024,0,0,1,331.339,685.894Zm0-365.788a15.017,15.017,0,0,0-15,15V664.894a15,15,0,0,0,30,0V335.106A15.017,15.017,0,0,0,331.339,320.106Z" fill="#202b52"/><path d="M683.339,685.894a21.024,21.024,0,0,1-21-21V335.106a21,21,0,0,1,42,0V664.894A21.024,21.024,0,0,1,683.339,685.894Zm0-365.788a15.016,15.016,0,0,0-15,15V664.894a15,15,0,0,0,30,0V335.106A15.017,15.017,0,0,0,683.339,320.106Z" fill="#202b52"/><path d="M427.005,373.147a1.5,1.5,0,0,1-1.5-1.5,15.518,15.518,0,0,0-15.5-15.5,1.5,1.5,0,0,1,0-3,18.52,18.52,0,0,1,18.5,18.5A1.5,1.5,0,0,1,427.005,373.147Z" fill="#fff"/><path d="M492.006,373.147a1.5,1.5,0,0,1-1.5-1.5,15.519,15.519,0,0,0-15.5-15.5,1.5,1.5,0,0,1,0-3,18.521,18.521,0,0,1,18.5,18.5A1.5,1.5,0,0,1,492.006,373.147Z" fill="#fff"/><path d="M556.006,373.147a1.5,1.5,0,0,1-1.5-1.5,15.518,15.518,0,0,0-15.5-15.5,1.5,1.5,0,0,1,0-3,18.521,18.521,0,0,1,18.5,18.5A1.5,1.5,0,0,1,556.006,373.147Z" fill="#fff"/><path d="M524.339,451.606a1.5,1.5,0,0,1-1.5-1.5,15.518,15.518,0,0,0-15.5-15.5,1.5,1.5,0,1,1,0-3,18.521,18.521,0,0,1,18.5,18.5A1.5,1.5,0,0,1,524.339,451.606Z" fill="#fff"/><path d="M625.088,451.606a1.5,1.5,0,0,1-1.5-1.5,15.518,15.518,0,0,0-15.5-15.5,1.5,1.5,0,0,1,0-3,18.521,18.521,0,0,1,18.5,18.5A1.5,1.5,0,0,1,625.088,451.606Z" fill="#fff"/></svg>