<svg height="480pt" viewBox="-48 0 480 480.21183" width="480pt" xmlns="http://www.w3.org/2000/svg" xmlns:xlink="http://www.w3.org/1999/xlink"><linearGradient id="a" gradientUnits="userSpaceOnUse" x1="192.105915" x2="192.105915" y1="-39.788166" y2="546.891834"><stop offset="0" stop-color="#fff33b"/><stop offset=".014" stop-color="#fee72e"/><stop offset=".042" stop-color="#fed51b"/><stop offset=".07" stop-color="#fdca10"/><stop offset=".1" stop-color="#fdc70c"/><stop offset=".4" stop-color="#f3903f"/><stop offset=".8" stop-color="#ed683c"/><stop offset="1" stop-color="#e93e3a"/></linearGradient><path d="m376.515625 379.765625c5.941406-34.921875-11.761719-85.203125-49.203125-139.578125 51.410156-74.648438 64.753906-139.40625 34.53125-169.710938-19.496094-19.503906-53.960938-21.03125-97.488281-4.535156-19.21875-42.441406-44.691407-65.730468-72.25-65.730468-9.589844.15625-18.957031 2.921874-27.09375 8-8.667969-7.824219-20.921875-10.28125-31.933594-6.402344s-19.019531 13.472656-20.871094 25c-1.847656 11.527344 2.757813 23.144531 12.003907 30.273437-1.445313 2.902344-2.863282 5.875-4.25 8.921875-43.582032-16.527344-78.0625-15.015625-97.597657 4.511719-30.21875 30.265625-16.875 95.023437 34.542969 169.695313-37.449219 54.402343-55.152344 104.65625-49.207031 139.570312-4.867188 5.699219-7.558594 12.9375-7.59375 20.429688 0 17.675781 14.328125 32 32 32 7.523437-.03125 14.792969-2.738282 20.503906-7.640626 4.527344.796876 9.117187 1.207032 13.710937 1.226563 18.363282-.628906 36.46875-4.503906 53.480469-11.449219 19.226563 42.527344 44.722657 65.863282 72.304688 65.863282 27.585937 0 53.074219-23.328126 72.304687-65.863282 17.011719 6.949219 35.117188 10.832032 53.480469 11.464844 4.597656-.019531 9.183594-.429688 13.710937-1.226562 5.714844 4.894531 12.980469 7.597656 20.503907 7.625 17.671875 0 32-14.324219 32-32-.03125-7.5-2.722657-14.742188-7.589844-20.445313zm-26.007813-297.953125c23.125 23.199219 9.660157 80.582031-33.195312 144.65625-7.132812-9.601562-14.695312-19.199219-22.824219-28.601562-2.46875-39.925782-10.570312-79.304688-24.054687-116.96875 36.566406-13.757813 65.578125-13.621094 80.074218.914062zm-94.84375 311.597656c-17.308593-7.949218-33.933593-17.3125-49.703124-28 21.144531-15.71875 41.113281-32.964844 59.746093-51.597656 3.734375-3.738281 7.285157-7.480469 10.824219-11.199219-3.28125 30.992188-10.285156 61.480469-20.867188 90.796875zm-127.117187 0c-10.570313-29.316406-17.570313-59.804687-20.839844-90.796875 3.535157 3.734375 7.085938 7.480469 10.824219 11.199219 18.621094 18.640625 38.582031 35.894531 59.71875 51.625-15.769531 10.675781-32.394531 20.03125-49.703125 27.972656zm0-306.398437c17.308594 7.949219 33.933594 17.3125 49.703125 28-21.144531 15.722656-41.113281 32.96875-59.742188 51.601562-3.738281 3.734375-7.289062 7.480469-10.824218 11.199219 3.277344-30.996094 10.28125-61.484375 20.863281-90.800781zm-40.167969 168.914062c-4.144531-5.234375-8-10.472656-11.808594-15.714843 3.800782-5.238282 7.664063-10.480469 11.808594-15.710938-.144531 5.246094-.273437 10.496094-.273437 15.710938 0 5.21875.128906 10.464843.273437 15.714843zm41.464844 46.550781c-8.800781-8.800781-16.976562-17.601562-24.53125-26.296874-.773438-11.96875-1.207031-24.023438-1.207031-35.96875 0-11.941407.433593-24 1.207031-36 7.539062-8.664063 15.730469-17.488282 24.53125-26.296876 19.324219-19.359374 40.140625-37.167968 62.261719-53.261718 22.125 16.101562 42.945312 33.921875 62.273437 53.296875 8.800782 8.796875 16.976563 17.597656 24.527344 26.292969.800781 11.953124 1.207031 24 1.207031 36s-.429687 24-1.207031 36c-7.535156 8.664062-15.726562 17.488281-24.527344 26.296874-19.328125 19.351563-40.152344 37.148438-62.273437 53.234376-22.121094-16.105469-42.941407-33.925782-62.261719-53.296876zm125.820312-215.464843c10.574219 29.320312 17.570313 59.804687 20.84375 90.800781-3.539062-3.738281-7.089843-7.480469-10.824218-11.199219-18.625-18.640625-38.582032-35.894531-59.722656-51.625 15.769531-10.675781 32.394531-20.035156 49.703124-27.976562zm40.167969 137.488281c4.144531 5.230469 8 10.472656 11.816407 15.703125-3.796876 5.242187-7.671876 10.480469-11.816407 15.710937.144531-5.238281.273438-10.484374.273438-15.703124 0-5.214844-.128907-10.464844-.273438-15.710938zm-151.726562-208.289062c8.835937 0 16 7.164062 16 16 0 8.835937-7.164063 16-16 16-8.835938 0-16-7.164063-16-16 0-8.835938 7.164062-16 16-16zm0 48c17.671875 0 32-14.324219 32-32-.03125-3.726563-.722657-7.417969-2.039063-10.902344 5.46875-3.238282 11.6875-4.992188 18.039063-5.097656 20.558593 0 41.296875 20.296874 57.527343 56-20.125 9.195312-39.378906 20.1875-57.527343 32.839843-18.121094-12.648437-37.34375-23.640625-57.441407-32.839843 1.335938-2.925782 2.707032-5.765626 4.105469-8.550782 1.761719.332032 3.546875.519532 5.335938.550782zm-110.398438 17.601562c14.527344-14.519531 43.527344-14.65625 80.078125-.921875-13.488281 37.648437-21.597656 77.007813-24.078125 116.921875-8.144531 9.4375-15.6875 19.007812-22.816406 28.597656-42.863281-64.039062-56.328125-121.4375-33.183594-144.597656zm-17.601562 318.398438c0-8.835938 7.164062-16 16-16 8.835937 0 16 7.164062 16 16 0 8.835937-7.164063 16-16 16-8.835938 0-16-7.164063-16-16zm46.402343 9.417968c1.007813-3.039062 1.546876-6.214844 1.597657-9.417968 0-17.671876-14.328125-32-32-32-3.214844.050781-6.402344.589843-9.457031 1.601562-1.597657-29.320312 14.273437-71.128906 44.210937-115.847656 7.140625 9.597656 14.710937 19.199218 22.847656 28.640625 2.472657 39.953125 10.582031 79.359375 24.085938 117.046875-16.246094 6.746094-33.695313 10.140625-51.285157 9.976562zm129.597657 54.582032c-20.558594 0-41.296875-20.296876-57.527344-56 20.125-9.191407 39.378906-20.183594 57.527344-32.839844 18.144531 12.65625 37.398437 23.648437 57.519531 32.839844-16.230469 35.703124-36.960938 56-57.519531 56zm78.3125-64.574219c13.503906-37.679688 21.613281-77.078125 24.089843-117.023438 8.148438-9.449219 15.710938-19.035156 22.847657-28.632812 29.933593 44.71875 45.8125 86.527343 44.207031 115.855469-3.050781-1.019532-6.238281-1.566407-9.457031-1.625-17.671875 0-32 14.328124-32 32 .054687 3.203124.59375 6.378906 1.601562 9.417968-17.597656.160156-35.042969-3.238281-51.289062-9.992187zm81.6875 16.574219c-8.835938 0-16-7.164063-16-16 0-8.835938 7.164062-16 16-16 8.835937 0 16 7.164062 16 16 0 8.835937-7.164063 16-16 16zm0 0" fill="url(#a)"/></svg>